<svg width="100" height="100" viewBox="0 0 100 100" fill="none" xmlns="http://www.w3.org/2000/svg">
<path d="M40.7016 13.7205L39.3842 15.7584L35.0039 22.8502C32.0514 27.8251 28.6281 34.3431 26.7528 39.8054C25.5241 43.3848 24.6396 46.6593 24.684 50.484C24.7114 52.834 25.5531 55.3838 27.1906 57.0834C28.1081 58.0364 29.3473 58.7512 30.5695 59.2216C31.5798 59.6096 33.1156 59.9031 34.1976 60.018H34.9232C35.4013 60.0612 36.2052 60.2528 36.5986 59.9047C37.0485 59.5061 36.938 58.6225 36.9389 58.0649L37.0163 57.0052C37.1702 53.4389 38.0176 49.8489 39.4156 46.5712L40.6379 43.8812C40.7943 43.6098 41.1563 43.1313 41.5159 43.3677C41.8352 43.578 41.8948 44.6377 41.948 45.0224L42.6696 49.4243C43.5291 54.5369 45.1972 60.2682 47.1136 65.0752C47.9892 67.2704 49.0148 69.3996 50.0605 71.5149L51.5198 74.4462C52.3583 75.6306 53.6974 74.2962 53.5789 73.3898L53.0097 71.5964L51.856 68.0098L48.8834 57.6573C47.645 53.028 46.5444 48.3393 45.614 43.6367C45.1416 41.2507 44.5417 38.2819 44.2886 35.8927L43.9499 31.6539L43.8726 30.5942L43.7919 28.8824V24.073L43.8726 22.6872L44.1007 19.5896C44.5409 14.9954 45.4455 10.4379 47.1459 6.13958C47.7135 4.70573 48.3722 3.30529 49.1615 1.9823C49.3316 1.69781 49.8484 0.700062 50.2814 1.05628C50.4886 1.22665 50.5378 1.87633 50.5748 2.14533L51.0014 5.1614L52.9831 16.8996C55.1188 27.8716 57.9141 36.9646 61.26 47.5494L63.8093 55.864L64.5124 58.3094C64.6043 58.6347 64.7099 59.1874 64.8913 59.4474C65.3194 60.0604 65.8387 59.8998 66.4474 59.7767C67.5987 59.5436 68.5114 59.2925 69.5917 58.8099C71.9959 57.7356 73.7044 55.9463 74.5364 53.4185C74.7573 52.7476 74.9121 52.1738 74.9129 51.4621V48.3646C74.9016 47.4133 74.6348 45.7349 74.4453 44.7779C73.7842 41.4341 72.8683 39.0588 71.4711 35.9742C69.936 32.5864 68.2276 29.3038 66.4724 26.0293L64.3979 22.1981L59.97 15.0248C59.6693 14.5577 58.6341 13.0081 58.5389 12.5793C58.4833 12.3731 58.5083 12.2891 58.5389 12.0902C59.0388 12.2369 59.3024 12.607 59.6282 12.9869L60.9875 14.5357L66.4643 20.9754C70.6858 26.3953 74.6219 32.1014 77.871 38.1751L79.211 40.9467L81.2831 45.6745C82.178 47.8681 83.1044 50.1595 83.7477 52.4403L84.4161 54.9673L84.8466 56.8422C85.0434 57.7625 85.3925 59.2819 85.3941 60.1843V61.57C85.3917 62.9395 84.7668 64.8731 83.8485 65.8895C83.5284 66.2433 83.1374 66.5229 82.7335 66.7707C82.2167 67.087 81.4612 67.4245 80.8791 67.59C79.8407 67.8842 78.5709 67.9405 77.4929 67.9282L76.6867 67.8435H76.0417C74.6396 67.6976 71.6928 66.9411 70.3173 66.4879L67.8986 65.6711C67.5777 65.5553 66.9142 65.2603 66.6086 65.2505C65.7967 65.2236 65.7959 65.9466 65.8024 66.5425L65.883 67.6837V70.2107L65.8096 71.0258C65.5807 74.1927 64.56 77.3229 62.4734 79.748C61.5309 80.8435 59.9144 82.1136 58.7074 82.9271C56.8724 84.1628 54.6569 85.1997 52.4187 85.2878C51.8544 85.3098 51.269 85.1361 50.7256 84.9951C49.609 84.7049 48.552 84.3275 47.5006 83.8482C45.718 83.0355 44.0709 81.9391 42.6664 80.5558C39.9115 77.843 38.3433 74.0476 37.6 70.2922C37.4016 69.2887 37.1122 67.3731 37.1001 66.3795C37.0937 65.7893 37.1493 64.644 36.5341 64.3595C36.1697 64.1899 35.3675 64.6603 35.0039 64.8184L30.892 66.3795C27.5566 67.5036 22.8288 68.4483 19.3627 67.6552C16.7304 67.0528 14.772 65.46 14.7672 62.5482V61.407L14.8405 60.5919C15.1324 56.2797 16.199 52.0914 17.6656 48.0385C20.9099 39.0694 26.4891 29.8858 32.3755 22.4427C34.4202 19.8578 36.5051 17.3064 38.7126 14.8617L39.9687 13.476C40.3702 13.0081 40.733 12.4913 41.3732 12.4163C41.3022 12.9298 40.9806 13.2974 40.7016 13.7205ZM22.1652 18.8576C22.0887 19.0728 21.7291 19.4796 21.5735 19.6711L20.5213 21.0569L17.9712 24.4805L16.2523 26.4369C15.929 26.8094 14.9211 27.7395 14.5253 28.0737C14.3221 28.2449 13.9811 28.5661 13.7207 28.6077C13.1273 28.703 13.3796 27.8846 13.449 27.5781C13.7271 26.3521 14.0706 25.44 14.6261 24.3175C14.9139 23.7355 15.6226 22.4264 16.0184 21.9674C16.969 20.8629 18.1913 20.1676 19.4434 19.4828L21.459 18.4337C21.7678 18.3604 22.3394 18.3636 22.1652 18.8576ZM78.4604 18.4109L80.476 19.438C81.7676 20.1619 82.9899 20.8156 83.9816 21.9674C84.4597 22.5217 85.2764 24.0982 85.615 24.8066C86.0334 25.6805 86.3624 26.7116 86.5696 27.6596C86.6252 27.9181 86.8171 28.531 86.4301 28.6077C86.1697 28.659 85.9044 28.4292 85.7166 28.2767L84.4266 27.1029C82.5037 25.3413 81.0275 23.1453 79.4787 21.0569L78.0484 19.182C77.7977 18.8633 77.6388 18.6163 78.0484 18.4109C78.2298 18.3873 78.2887 18.3661 78.4604 18.4109ZM12.9104 23.7469L12.2073 25.2142C11.8066 26.0228 11.2656 27.1176 11.0496 27.9857L10.5908 31.0018C10.4965 31.4705 10.0353 32.7291 10.4481 33.0592C10.669 33.2361 10.8762 33.1024 11.0576 32.9459L11.5648 32.3949L12.2678 31.7582L14.2834 30.291L17.0246 28.311L18.0728 27.5178C18.2122 27.4306 18.4291 27.3083 18.592 27.4208C18.8129 27.5781 18.6799 28.1063 18.592 28.3118C18.3759 28.8375 17.4987 30.1165 17.1327 30.5942C15.2348 33.0657 12.5048 34.6781 10.3328 36.8709C10.0087 37.1986 9.17102 38.1189 8.80096 38.2689C8.46233 38.405 8.08984 38.3308 8.00116 37.9273V37.4415V32.4691C7.99471 30.9431 7.96891 29.4505 8.48571 27.9857C8.93318 26.7173 9.72249 25.6682 10.6553 24.7251C11.1729 24.2018 11.8292 23.4192 12.5081 23.1527C12.9176 23.1258 13.0087 23.3687 12.9104 23.7469ZM88.2159 23.6083C88.6215 23.958 89.8333 25.2011 90.1662 25.6218C92.0964 28.0566 92.0053 30.0342 91.9988 32.9581V37.4415V37.9273C91.9101 38.3308 91.5377 38.405 91.1991 38.2689C90.8354 38.1213 90.0614 37.2695 89.7478 36.9524C87.5718 34.7531 84.8579 33.1244 82.931 30.6757C82.5013 30.1296 81.7982 29.0894 81.483 28.4748C81.3645 28.2441 81.1742 27.698 81.3645 27.4648C81.5153 27.2822 81.7724 27.4216 81.9272 27.5178L83.2979 28.5465L88.1345 32.1088C88.4715 32.4079 89.3415 33.6926 89.6881 32.8677C89.8405 32.5057 89.4656 31.2863 89.3769 30.8387L88.9883 28.1487C88.8327 27.4485 88.4336 26.5135 88.1152 25.8663L87.2154 24.073C87.0614 23.7428 86.9518 23.4844 87.2154 23.1812C87.6008 23.0663 87.9281 23.3597 88.2159 23.6083ZM5.96539 31.5724L5.89848 32.8766L5.82108 33.6918V34.5885C5.82028 36.2677 6.25887 37.3005 6.44027 38.8273L6.54347 41.4357L6.46366 42.8215V44.1241C6.50477 44.3385 6.62007 44.5309 6.86597 44.438C7.1022 44.3499 7.30376 44.0059 7.43438 43.7997L8.47846 42.1694C9.48626 40.6483 10.9964 38.784 12.3484 37.5817L13.6384 36.4552C13.7682 36.3565 14.0246 36.1552 14.1907 36.1617C14.5712 36.1756 14.3971 36.8244 14.3407 37.0339C14.0956 37.9322 13.7537 38.8012 13.3578 39.6424C12.5919 41.2654 11.393 42.6267 10.3231 44.0442C9.35243 45.3322 8.61068 46.5093 7.89393 47.957L6.92805 50.0764C6.81679 50.3323 6.6499 50.7016 6.30402 50.5932C5.92186 50.4742 5.7719 49.7731 5.65661 49.4243L4.60687 46.0821C3.41605 42.1694 2.61545 37.62 4.14086 33.6918L4.89712 31.8984C5.06079 31.5186 5.19462 31.1159 5.51148 30.842C6.03715 30.6798 6.00087 31.1917 5.96539 31.5724ZM94.9997 31.6539C95.4681 32.7177 95.9647 33.7815 96.2485 34.9145C96.4703 35.803 96.6799 36.7682 96.6815 37.686V39.2348C96.6783 41.5132 95.7809 44.7746 95.1271 46.9788L94.1822 49.9133C94.0814 50.206 93.879 50.7285 93.4718 50.5932C93.1953 50.5019 93.0429 50.0014 92.9389 49.7503L91.9045 47.5494C90.284 44.2945 87.987 42.3642 86.6817 39.7239C86.2721 38.8957 85.9303 38.0064 85.6835 37.1154C85.6215 36.8953 85.4554 36.3736 85.6835 36.2041C85.8633 36.0712 86.1383 36.2913 86.281 36.3948L87.7322 37.6518C89.2504 38.9829 90.8894 41.1928 92.0053 42.903L92.8422 44.2024C92.9599 44.3377 93.1542 44.5293 93.3509 44.438C93.6371 44.3059 93.5372 43.5062 93.5372 43.2291V42.6585L93.4565 41.4357C93.4549 40.3736 93.4791 39.3082 93.6395 38.2566L93.9403 36.8709C94.1346 35.9074 94.1934 34.9178 94.1822 33.9363L94.1048 33.1212V32.306C94.0959 31.8422 93.8734 31.2422 94.1612 30.8396C94.6433 30.6749 94.8408 31.2944 94.9997 31.6539ZM11.8969 47.957L11.4333 50.3209C10.9262 52.5879 10.4433 54.863 9.76683 57.0867L9.06943 59.3691C8.88238 59.9495 8.64777 60.4639 8.63971 61.081C8.62842 62.0257 8.68808 62.3885 8.52441 63.3634C8.47684 63.6454 8.42121 64.0946 8.0713 64.1378C7.63432 64.1908 7.33923 63.6691 7.13445 63.3634L5.41473 60.8364C4.23439 59.0463 3.0089 57.2057 2.19056 55.2118C1.57943 53.7209 1.22549 52.0874 1.06424 50.484V49.7503L0.980392 48.9352V47.0603L1.06102 45.9191V45.5115C1.06102 45.2776 1.03441 44.2774 1.4601 44.4102C1.731 44.495 1.91403 45.0958 2.01239 45.3485C2.47195 46.5329 2.54773 47.1818 2.82508 48.3646C3.18305 49.8864 4.01348 51.7678 4.70927 53.174C4.9326 53.6264 5.68805 55.07 5.77512 55.4564C5.8235 55.67 5.81785 55.8909 5.81785 56.1085C5.81866 56.3751 5.78399 56.8552 5.90009 57.0834C6.01458 57.3076 6.22258 57.4144 6.35803 57.6646C6.55798 58.0331 6.41689 58.1179 6.78535 58.4725C7.01754 56.693 7.30214 54.876 7.88909 53.174C8.43411 51.5966 9.08394 50.4962 9.95549 49.0982C10.2385 48.645 11.1681 47.0261 11.4696 46.766C11.6567 46.6046 11.7978 46.5574 12.0259 46.4897C12.1501 46.969 11.9913 47.4801 11.8969 47.957ZM93.642 57.6646C93.7774 57.4144 93.9854 57.3076 94.0999 57.0834C94.216 56.8552 94.1813 56.3751 94.1822 56.1085C94.1822 55.8909 94.1765 55.67 94.2249 55.4564C94.312 55.07 95.0674 53.6264 95.2907 53.174C95.9865 51.7678 96.817 49.8864 97.1749 48.3646C97.4523 47.1818 97.5281 46.5329 97.9876 45.3485C98.086 45.0958 98.269 44.495 98.5399 44.4102C98.9656 44.2774 98.939 45.2776 98.939 45.5115V45.9191L99.0196 46.9788V48.9352L98.9358 49.7503V50.484C98.7745 52.0874 98.4206 53.7209 97.8094 55.2118C96.9911 57.2057 95.7656 59.0463 94.5853 60.8364L92.8655 63.3634C92.6608 63.6691 92.3657 64.1908 91.9287 64.1378C91.5788 64.0946 91.5232 63.6454 91.4756 63.3634C91.3119 62.3885 91.3716 62.0257 91.3603 61.081C91.3522 60.4639 91.1176 59.9495 90.9306 59.3691L90.2332 57.0867C89.5567 54.863 89.0738 52.5879 88.5667 50.3209L88.1031 47.957C88.0088 47.4801 87.8499 46.969 87.9741 46.4897C88.2022 46.5574 88.3433 46.6046 88.5304 46.766C88.8319 47.0261 89.7615 48.645 90.0445 49.0982C90.9161 50.4962 91.5659 51.5966 92.1109 53.174C92.6979 54.876 92.9825 56.693 93.2147 58.4725C93.5831 58.1179 93.442 58.0331 93.642 57.6646ZM12.7653 59.6952L13.0144 61.3255C13.378 63.3006 13.6126 63.3324 13.6384 65.5643L13.719 67.0316L13.7924 67.9282L14.252 72.0855C14.5035 73.4403 14.689 74.09 15.2412 75.3461C15.3823 75.6266 15.5484 76.189 15.2412 76.4042C14.8107 76.6805 14.1367 76.1368 13.7997 75.9208L10.0909 73.4982C7.34327 71.6258 3.81837 68.9847 2.29135 65.9719C1.55847 64.5258 1.14406 62.4586 1.14164 60.8364C1.14083 60.318 1.08601 59.6096 1.22227 59.1246C1.65844 59.4987 1.75035 59.8607 2.01722 60.3473C2.36955 60.9897 2.79283 61.7494 3.26207 62.3037L5.41473 64.4231L8.88722 68.1728C9.15328 68.4695 9.4653 68.798 9.65476 69.151C9.93211 69.6662 9.89584 69.9458 10.3473 70.4544C10.4868 70.6109 10.9286 71.0625 11.1616 70.9834C11.4075 70.8995 11.3866 70.4185 11.3777 70.2107L11.0181 67.7652C10.8496 66.4748 10.815 64.3994 11.0181 63.1188L11.6825 60.1843C11.7413 59.8656 11.8735 58.8458 11.8606 58.554C11.8357 58.1717 11.7599 58.1448 11.8606 57.7388C12.7701 58.1725 12.6798 58.8385 12.7653 59.6952ZM98.8584 60.8364C98.8559 62.4586 98.4415 64.5258 97.7087 65.9719C96.1816 68.9847 92.6567 71.6258 89.9091 73.4982L86.2003 75.9208C85.8633 76.1368 85.1893 76.6805 84.7588 76.4042C84.4516 76.189 84.6177 75.6266 84.7588 75.3461C85.3111 74.09 85.4965 73.4403 85.748 72.0855L86.2076 67.9282L86.281 67.1131L86.3616 65.5643C86.3874 63.3324 86.622 63.3006 86.9856 61.3255L87.2348 59.6952C87.3202 58.8385 87.2299 58.1725 88.1394 57.7388C88.2651 58.2401 88.116 58.316 88.1394 58.7985L88.303 60.1028L88.9883 63.1188C89.1576 64.2209 89.1157 65.3475 89.1028 66.461L88.6545 69.8846C88.6183 70.1202 88.5385 70.884 88.8263 70.981C89.0673 71.0625 89.5084 70.6166 89.6527 70.4544C90.1034 69.9458 90.0679 69.6662 90.3452 69.151C90.5347 68.798 90.8467 68.4695 91.1128 68.1728L94.5853 64.4231L96.7379 62.3037C97.2072 61.7494 97.6304 60.9897 97.9828 60.3473C98.2496 59.8607 98.3416 59.4987 98.7777 59.1246C98.914 59.6096 98.8592 60.318 98.8584 60.8364ZM17.1391 68.5804L18.4751 70.6998C19.836 73.0564 20.0803 74.7682 20.922 77.221C21.3614 78.5008 21.9468 79.695 22.57 80.8892L24.2042 83.6607C24.3486 83.8947 24.7444 84.3943 24.4155 84.625C24.2171 84.7636 23.6528 84.7098 23.394 84.7278L22.6683 84.8003L20.5721 84.6446C16.0451 84.2215 11.1882 81.3848 8.32365 77.8731L6.90386 75.8352L5.65661 74.2864C5.50664 74.0598 4.93582 73.2944 5.10272 73.0311C5.28331 72.7442 5.77512 73.0018 5.94524 73.164L6.38303 73.6205C7.04818 74.2416 7.80524 74.7617 8.55908 75.2646L11.4616 76.965L16.5409 79.8621L18.4759 81.0555C19.1604 81.5454 19.4821 82.103 19.7691 82.3312C20.2593 82.72 20.9059 82.4445 20.7874 81.8674C20.7197 81.5372 20.1948 81.0865 19.9626 80.8077C19.4982 80.2509 18.9903 79.4235 18.667 78.7698C17.5463 76.5045 16.9311 74.0011 16.5207 71.5149L16.2047 68.9879C16.1684 68.6081 16.0281 68.3203 16.324 68.0204C16.7513 67.9437 16.9134 68.2641 17.1391 68.5804ZM83.8485 68.5804L83.4922 71.4334C83.0745 73.9506 82.4682 76.4743 81.333 78.7698C81.0097 79.4235 80.5018 80.2509 80.0374 80.8077C79.8052 81.0865 79.2804 81.5372 79.2126 81.8674C79.0941 82.4445 79.7407 82.72 80.2309 82.3312C80.5179 82.103 80.8396 81.5454 81.5241 81.0555L83.4591 79.8621L88.5384 76.965L91.4409 75.2646C92.1948 74.7617 92.9518 74.2416 93.617 73.6205L94.0548 73.164C94.2249 73.0018 94.7167 72.7442 94.8973 73.0311C95.0456 73.2651 94.6328 73.8446 94.5046 74.0419L93.0961 75.8352L92.6229 76.5689C90.0558 80.5362 85.3755 83.5018 80.7985 84.427C79.5424 84.6813 77.9557 84.8566 76.6867 84.7343C76.3053 84.6976 75.466 84.8411 75.4531 84.3854C75.4475 84.1596 75.7716 83.6998 75.8957 83.4977L77.0212 81.6228C78.3886 79.2141 78.8692 77.9718 79.6682 75.3461C80.393 72.9643 80.7727 71.8736 82.1143 69.7216C82.4336 69.2097 82.9318 68.2608 83.4591 68C83.8485 68.0032 83.8751 68.2274 83.8485 68.5804ZM24.5227 78.2815L26.3029 80.3186C28.7531 83.011 30.8557 85.0147 34.1976 86.5382L36.2922 87.3305C36.5357 87.4259 36.8397 87.6224 36.5115 87.8661C36.3761 87.9672 35.461 88.2883 35.2457 88.3617L32.4239 89.1932C28.2887 90.239 23.3577 90.6107 19.2821 89.1182C17.5527 88.4848 15.5799 87.4618 14.306 86.0988C14.0391 85.8135 13.5401 85.2413 13.4264 84.8834C13.3498 84.7253 13.2804 84.4376 13.4264 84.3177C13.661 84.162 14.2995 84.5085 14.5253 84.6047L17.4278 85.644C20.5278 86.6621 24.4937 87.2702 27.7477 87.4137L28.6345 87.4919H30.0858C30.2793 87.4919 30.8936 87.5311 30.784 87.17C30.7235 86.9694 30.3414 86.7648 30.1664 86.6654L28.5539 85.6407C26.6601 84.2696 24.9508 82.2016 24.1043 79.9925L23.6221 78.5252C23.5536 78.2448 23.4601 78.0508 23.6221 77.7957C23.9874 77.693 24.2752 78.037 24.5227 78.2815ZM76.2819 78.8513C75.9078 80.0708 75.4974 81.0359 74.8049 82.1119C73.8914 83.5303 72.5724 84.8435 71.2042 85.8135L69.753 86.7118C69.5925 86.8056 69.2725 86.9825 69.216 87.17C69.1136 87.5091 69.6449 87.4903 69.8336 87.4919H71.3655L72.2523 87.4137C75.8941 87.2531 79.4908 86.5985 82.9754 85.5127L85.636 84.5346C85.8464 84.4433 86.418 84.1286 86.6002 84.3626C86.8873 84.731 86.1858 85.5258 85.9689 85.7801C85.0426 86.8643 83.7558 87.7332 82.4916 88.3682C78.2338 90.5072 72.8433 90.4656 68.3017 89.3766L64.4318 88.2509C64.2044 88.1693 63.1563 87.8987 63.3893 87.5294C63.4965 87.3599 64.0681 87.2066 64.2705 87.139L66.2861 86.3254C68.0437 85.5038 69.8538 84.1408 71.2848 82.8317C72.3458 81.8609 73.3246 80.762 74.2575 79.6665C74.763 79.073 75.4442 78.1405 76.1191 77.7835C76.735 77.6913 76.3843 78.5163 76.2819 78.8513ZM24.8452 93.198C25.7111 93.2078 26.5681 93.22 27.4252 93.0806C29.5714 92.7318 31.5894 91.7935 33.6333 91.0851L37.987 89.8045C39.4745 89.4336 41.457 89.1108 42.9857 88.9462L45.4044 88.7147H51.0481L52.4187 88.7962C55.3744 88.8011 58.8372 88.5908 61.6905 89.2755C63.74 89.7679 65.0606 90.4501 66.8505 91.5351C67.926 92.1872 69.0999 92.8573 70.3173 93.1948C71.9766 93.6325 73.8027 93.4866 75.4773 93.1948C76.011 93.1149 76.6455 92.9347 77.1704 92.9551C77.397 92.9641 77.7686 93.0244 77.6405 93.3553C77.5179 93.6724 76.3005 94.4036 75.961 94.5952C73.8309 95.7967 72.054 95.9973 69.6723 95.9695C67.0496 95.9386 63.1039 94.4485 60.8843 93.066L58.7881 91.4862C57.0941 90.3515 55.4325 89.6896 53.3862 89.6929C52.7299 89.6937 51.9842 89.8966 52.6775 90.6637C53.0565 91.0827 54.8802 92.0984 55.4825 92.4644C57.1022 93.4491 58.6969 94.5658 59.9902 95.9695C60.3562 96.3665 61.1915 97.4197 61.3277 97.9259C61.4406 98.3425 61.3253 98.8307 60.8827 98.9799C60.4941 99.1111 60.0474 98.8959 59.7564 98.6424L57.9012 96.6217C56.3282 95.024 54.6424 93.5257 52.8219 92.2198C52.1083 91.7079 50.7321 90.7933 49.9194 90.5374C49.2171 90.3164 48.3553 91.0281 47.7425 91.3427C45.6697 92.409 43.7806 93.8143 42.0182 95.3394L40.2445 96.9477C39.9478 97.2444 39.1528 98.084 38.8738 98.2805C38.6239 98.4574 37.7483 98.7737 37.5202 98.4501C37.3904 98.2642 37.5282 97.9414 37.6137 97.7629C37.8491 97.2738 38.3014 96.6249 38.6553 96.2141C40.3009 94.3001 42.4431 92.9429 44.5982 91.6965C45.1561 91.3737 45.922 91.0207 46.3147 90.5047C46.4872 90.2789 46.6573 89.983 46.4703 89.7116C46.1913 89.3048 45.5705 89.5143 45.1625 89.529C43.8161 89.5779 42.2536 89.9146 41.1313 90.6865L39.4382 92.0038C38.5376 92.7057 37.5363 93.3594 36.5357 93.9064L35.0845 94.6286L32.6658 95.3076C31.7378 95.531 30.3833 95.8049 29.4408 95.8065H28.1508C27.3284 95.8049 26.5254 95.6353 25.7321 95.4291C24.4751 95.1022 23.1972 94.4648 22.104 93.7645C21.6355 93.4646 21.0704 93.2176 20.9752 92.6274L24.8452 93.198Z" fill="white" stroke="#010101" stroke-width="0.4"/>
</svg>